<?xml version="1.0" encoding="UTF-8"?>
<svg width="1990px" height="340px" viewBox="0 0 1990 340" version="1.1" xmlns="http://www.w3.org/2000/svg" xmlns:xlink="http://www.w3.org/1999/xlink">
    <title>Group 7</title>
    <g id="Page-1" stroke="none" stroke-width="1" fill="none" fill-rule="evenodd">
        <g id="Group-7">
            <g id="Group" transform="translate(329.910933, 0.000000)" fill="#211915" fill-rule="nonzero">
                <polygon id="Path" points="154.763307 14.0040574 154.763307 29.4910164 19.0246664 29.4910164 19.0246664 133.709141 131.988368 133.709141 131.988368 148.831701 19.0246664 148.831701 19.0246664 256.329417 154.763307 256.329417 154.763307 271.821437 0.258115984 271.821437 0.258115984 14.0091185 154.763307 14.0091185"></polygon>
                <path d="M234.748896,179.076821 L171.707863,90.527855 L188.288019,90.527855 C189.988548,90.527855 191.233578,90.8922541 192.023109,91.6210521 C192.81264,92.3498502 193.511072,93.2001146 194.118403,94.1718454 L247.320663,171.060042 C247.806528,168.995114 248.838992,166.80872 250.418054,164.500859 L300.158523,94.3540449 C300.765855,93.2608478 301.525019,92.3498502 302.436017,91.6210521 C303.347014,90.8922541 304.409845,90.527855 305.624508,90.527855 L321.658066,90.527855 L258.252634,178.165823 L324.208859,271.816376 L307.628703,271.816376 C305.928174,271.816376 304.592044,271.295082 303.620314,270.262619 C302.648583,269.235216 301.859052,268.233118 301.25172,267.256326 L246.227465,187.088539 C245.620134,189.517865 244.709136,191.582793 243.494473,193.283322 L190.656612,267.620726 C189.806348,268.713923 188.925717,269.685653 188.014719,270.535918 C187.103722,271.386182 185.980158,271.811314 184.644028,271.811314 L169.157069,271.811314 L234.748896,179.076821 Z" id="Path"></path>
                <path d="M345.521142,335.950606 L345.521142,90.527855 L354.995517,90.527855 C356.574579,90.527855 357.844915,90.8618875 358.821707,91.5299524 C359.793437,92.1980173 360.340036,93.3823141 360.461502,95.082843 L362.101298,123.141569 C370.118077,112.209598 379.501352,103.529815 390.251123,97.0870377 C401.000895,90.6493214 413.05643,87.4304632 426.417728,87.4304632 C448.767535,87.4304632 466.137223,95.1435761 478.52679,110.569802 C490.916357,125.996028 497.111141,149.135367 497.111141,179.987818 C497.111141,193.22765 495.380245,205.586851 491.918455,217.06542 C488.456664,228.549051 483.385444,238.50423 476.704795,246.946141 C470.024146,255.388052 461.794801,262.038335 452.01676,266.891927 C442.238719,271.755642 430.972716,274.179908 418.218749,274.179908 C405.829182,274.179908 395.140144,271.932781 386.151634,267.438526 C377.163125,262.944271 369.389279,256.263622 362.830096,247.396579 L362.830096,335.945545 L345.521142,335.945545 L345.521142,335.950606 Z M421.498341,101.459826 C409.473173,101.459826 398.566507,104.587585 388.793527,110.843101 C379.015486,117.098618 370.361009,125.813828 362.830096,136.988732 L362.830096,232.096881 C369.753678,242.542986 377.436424,249.896761 385.878335,254.143022 C394.315185,258.394344 403.941393,260.520005 414.756959,260.520005 C425.440936,260.520005 434.798906,258.576544 442.815684,254.694682 C450.832463,250.802698 457.543479,245.311407 462.948731,238.200564 C468.348922,231.099844 472.423106,222.5972 475.156099,212.692632 C477.889092,202.793125 479.255588,191.896581 479.255588,179.987818 C479.255588,153.02229 474.305834,133.192909 464.406327,120.499676 C454.50682,107.806443 440.204158,101.459826 421.498341,101.459826 Z" id="Shape"></path>
                <path d="M594.218423,87.6126627 C604.421596,87.6126627 613.865604,89.3739247 622.550448,92.8964488 C631.230231,96.4189728 638.766205,101.550926 645.143188,108.292308 C651.520171,115.03369 656.500291,123.323768 660.083549,133.162542 C663.666806,143.001316 665.458434,154.297686 665.458434,167.051653 C665.458434,169.723912 665.058608,171.545907 664.274138,172.517638 C663.484606,173.489369 662.244637,173.975234 660.544109,173.975234 L529.719793,173.975234 L529.719793,177.437025 C529.719793,191.041256 531.298856,203.005691 534.456981,213.33033 C537.615106,223.660031 542.109361,232.314508 547.939745,239.298823 C553.77013,246.283138 560.810117,251.536557 569.074889,255.05402 C577.334601,258.576544 586.566043,260.337806 596.769216,260.337806 C605.879192,260.337806 613.774504,259.34077 620.455153,257.331514 C627.130741,255.327319 632.753621,253.080192 637.308609,250.590132 C641.863597,248.105133 645.477221,245.852944 648.14948,243.84875 C650.82174,241.844555 652.765201,240.842457 653.979865,240.842457 C655.558927,240.842457 656.773591,241.449789 657.623855,242.664453 L662.361043,248.489776 C659.44585,252.133766 655.589294,255.539885 650.791373,258.69801 C645.993453,261.856135 640.648933,264.558761 634.757816,266.805889 C628.866698,269.053016 622.550448,270.844645 615.809066,272.180775 C609.067684,273.521965 602.295935,274.184969 595.493819,274.184969 C583.104252,274.184969 571.807882,272.023881 561.604709,267.716886 C551.401536,263.404831 542.640776,257.118948 535.337612,248.859236 C528.029387,240.599525 522.381202,230.487452 518.393057,218.523016 C514.399851,206.558581 512.405778,192.863251 512.405778,177.437025 C512.405778,164.440126 514.25814,152.445325 517.962863,141.45262 C521.667587,130.459916 527.012106,120.985541 533.996421,113.029496 C540.980736,105.07345 549.544113,98.8482997 559.686553,94.3540449 C569.834054,89.8597901 581.337929,87.6126627 594.218423,87.6126627 Z M594.486661,100.548829 C585.148936,100.548829 576.77788,102.006425 569.383616,104.921617 C561.984291,107.836809 555.587064,112.027398 550.191934,117.493384 C544.796804,122.959369 540.429076,129.518552 537.093813,137.170932 C533.753488,144.823311 531.541789,153.386689 530.453653,162.861064 L649.794337,162.861064 C649.794337,153.143756 648.458207,144.428546 645.791009,136.715433 C643.12381,129.00232 639.363415,122.473504 634.509822,117.128985 C629.66129,111.784465 623.835967,107.684976 617.043974,104.830517 C610.246919,101.976058 602.731189,100.548829 594.486661,100.548829 Z" id="Shape"></path>
                <path d="M697.520489,271.821437 L697.520489,90.5329161 L706.630464,90.5329161 C708.695392,90.5329161 710.183355,90.9580483 711.094353,91.8083127 C712.00535,92.6585772 712.521582,94.1161733 712.643049,96.1811012 L714.100645,134.443 C719.931029,119.745572 727.704875,108.236636 737.422183,99.9161913 C747.139491,91.5957466 759.103926,87.4355243 773.315488,87.4355243 C778.781474,87.4355243 783.822327,88.0124894 788.438048,89.1664197 C793.053769,90.32035 797.426558,91.9905123 801.556413,94.1769065 L799.18782,106.202075 C799.18782,106.202075 793.782567,103.813237 792.446437,103.327371 C791.110308,102.841506 789.440145,102.294907 787.435951,101.687576 C785.431756,101.080244 782.972063,100.533645 780.05687,100.04778 C777.141678,99.5619145 773.801353,99.3189818 770.035897,99.3189818 C756.3102,99.3189818 745.044196,108.631402 736.237886,117.134046 C727.431576,125.63669 720.295428,137.904791 714.829443,153.938348 L714.829443,271.821437 L697.520489,271.821437 Z" id="Path"></path>
                <path d="M883.541135,274.736629 C867.386112,274.736629 854.935811,270.151274 846.190234,260.975504 C837.444657,251.804795 833.071869,239.14699 833.071869,222.986905 L833.071869,118.586581 L814.123119,118.586581 C811.693792,118.586581 809.593437,117.79705 807.837236,116.217987 C806.075974,114.638925 805.195343,112.275392 805.195343,109.112206 L805.195343,91.2566531 L840.319361,86.3372661 L844.732638,35.321401 C845.218503,32.8920741 846.342067,31.0093458 848.103329,29.673216 C849.864591,28.3370862 852.081352,27.6690213 854.753612,27.6690213 L878.07515,27.6690213 L878.07515,86.5194656 L927.26902,86.5194656 L927.26902,118.586581 L878.07515,118.586581 L878.07515,219.894574 C878.07515,225.719897 879.532746,230.279947 882.447938,233.554477 C885.363131,236.834068 889.250054,238.478925 894.108708,238.478925 C896.902433,238.478925 899.240661,238.144892 901.123389,237.476827 C903.006117,236.808763 904.645913,236.10527 906.042776,235.381533 C907.434578,234.647674 908.684669,233.954303 909.777866,233.286239 C910.871063,232.618174 911.96426,232.284141 913.057457,232.284141 C914.393587,232.284141 915.486784,232.618174 916.337049,233.286239 C917.187313,233.954303 918.098311,234.956401 919.070041,236.292531 L932.557867,258.156473 C925.998684,263.622458 918.46271,267.752314 909.965127,270.54604 C901.457421,273.334705 892.651111,274.736629 883.541135,274.736629 Z" id="Path"></path>
                <path d="M1003.24622,30.402014 C1003.24622,34.2939982 1002.45669,37.9379886 1000.87763,41.3339851 C999.293502,44.7350428 997.198207,47.7109683 994.591742,50.2617615 C991.975154,52.8125548 988.91319,54.8471161 985.395727,56.3654454 C981.868142,57.8837747 978.107746,58.6429393 974.099357,58.6429393 C970.207373,58.6429393 966.538077,57.8888358 963.076286,56.3654454 C959.609434,54.8471161 956.608203,52.8125548 954.052349,50.2617615 C951.501556,47.7109683 949.466994,44.7350428 947.948665,41.3339851 C946.425275,37.9379886 945.671171,34.2889371 945.671171,30.402014 C945.671171,26.3936246 946.425275,22.6281679 947.948665,19.1056439 C949.466994,15.5831199 951.501556,12.5464613 954.052349,9.99566801 C956.603142,7.44487475 959.609434,5.41031347 963.076286,3.89198415 C966.538077,2.37365483 970.207373,1.61449017 974.099357,1.61449017 C978.107746,1.61449017 981.868142,2.37365483 985.395727,3.89198415 C988.91319,5.41031347 991.980215,7.44487475 994.591742,9.99566801 C997.203268,12.5464613 999.298563,15.5831199 1000.87763,19.1056439 C1002.45669,22.6281679 1003.24622,26.3936246 1003.24622,30.402014 Z M996.504837,84.87967 L996.504837,271.821437 L951.501556,271.821437 L951.501556,84.87967 L996.504837,84.87967 Z" id="Shape"></path>
                <path d="M1164.12839,124.416965 C1162.7872,126.117494 1161.4865,127.453624 1160.2111,128.425355 C1158.93571,129.397086 1157.08335,129.882951 1154.65402,129.882951 C1152.34616,129.882951 1150.09903,129.184519 1147.91264,127.787656 C1145.72624,126.395855 1143.11472,124.811731 1140.07806,123.050469 C1137.03634,121.289207 1133.42777,119.710145 1129.23719,118.313282 C1125.0466,116.92148 1119.85391,116.217987 1113.65913,116.217987 C1105.75875,116.217987 1098.83517,117.650278 1092.88838,120.499676 C1086.93653,123.354135 1081.98678,127.453624 1078.03912,132.798143 C1074.09146,138.142662 1071.14591,144.610745 1069.20244,152.202392 C1067.25392,159.794038 1066.28725,168.387782 1066.28725,177.983624 C1066.28725,187.943864 1067.35008,196.810907 1069.47574,204.584753 C1071.6014,212.358599 1074.66843,218.892477 1078.67682,224.176263 C1082.68521,229.460049 1087.5388,233.468438 1093.25278,236.201431 C1098.9617,238.934424 1105.39435,240.30092 1112.56087,240.30092 C1119.72738,240.30092 1125.53246,239.420289 1129.96092,237.664088 C1134.38938,235.907887 1138.12953,233.959365 1141.16619,231.833704 C1144.20285,229.708042 1146.84474,227.764581 1149.09187,226.003319 C1151.33394,224.242057 1153.85436,223.366487 1156.65315,223.366487 C1160.29714,223.366487 1163.03014,224.76335 1164.84707,227.557076 L1177.7883,243.955033 C1172.80818,249.780356 1167.40292,254.674438 1161.57254,258.617033 C1155.74215,262.564689 1149.69414,265.722814 1143.44369,268.091408 C1137.18817,270.460001 1130.71503,272.130164 1124.03944,273.101894 C1117.35879,274.068564 1110.73887,274.559491 1104.17969,274.559491 C1092.64039,274.559491 1081.76409,272.398402 1071.56598,268.091408 C1061.36787,263.784413 1052.46539,257.493469 1044.87881,249.233757 C1037.2821,240.974046 1031.27458,230.861973 1026.84106,218.897538 C1022.40753,206.933103 1020.19077,193.293444 1020.19077,177.988685 C1020.19077,164.262988 1022.16966,151.539388 1026.11732,139.817886 C1030.05991,128.096383 1035.86499,117.953944 1043.51737,109.390566 C1051.16975,100.827189 1060.64413,94.1161733 1071.9405,89.2575195 C1083.23181,84.3988657 1096.23377,81.9695388 1110.9312,81.9695388 C1124.89982,81.9695388 1137.13756,84.2217273 1147.6444,88.7109209 C1158.14618,93.2051757 1167.59018,99.642892 1175.97642,108.02407 L1164.12839,124.416965 Z" id="Path"></path>
                <path d="M1237.54974,1.06789162 L1237.54974,156.119682 L1245.93092,156.119682 C1248.96757,156.119682 1251.33111,155.694549 1253.03164,154.844285 C1254.73216,153.99402 1256.55416,152.414958 1258.49762,150.107097 L1304.96356,92.7142492 C1307.02343,90.2899834 1309.21488,88.3768885 1311.52274,86.9749644 C1313.82554,85.5781014 1316.86726,84.87967 1320.63272,84.87967 L1361.80981,84.87967 L1303.68816,154.297686 C1301.62324,156.84848 1299.49757,159.191768 1297.30612,161.312368 C1295.11972,163.438029 1292.75619,165.290391 1290.2054,166.869453 C1292.75619,168.691448 1294.99826,170.817109 1296.94678,173.246436 C1298.89024,175.675763 1300.8337,178.28729 1302.7721,181.081016 L1365.0894,271.821437 L1324.45891,271.821437 C1320.93638,271.821437 1317.96046,271.214105 1315.53113,269.999441 C1313.1018,268.789839 1310.91541,266.724911 1308.97195,263.804658 L1261.41787,192.929045 C1259.60094,190.135319 1257.77388,188.313324 1255.95189,187.46306 C1254.13496,186.617856 1251.40196,186.187663 1247.75291,186.187663 L1237.54974,186.187663 L1237.54974,271.821437 L1192.54646,271.821437 L1192.54646,1.06789162 L1237.54974,1.06789162 Z" id="Path"></path>
                <path d="M1444.70553,81.9644777 C1456.48776,81.9644777 1467.32864,83.8522671 1477.2332,87.6126627 C1487.12765,91.3781194 1495.66572,96.8795327 1502.83224,104.101719 C1509.99875,111.328967 1515.5862,120.201071 1519.59459,130.702849 C1523.60298,141.209688 1525.60718,153.204489 1525.60718,166.687254 C1525.60718,170.088311 1525.45534,172.912404 1525.15168,175.159531 C1524.84295,177.406659 1524.30141,179.167921 1523.51188,180.443317 C1522.72235,181.718714 1521.65952,182.629711 1520.32339,183.17631 C1518.9822,183.722909 1517.28167,183.996208 1515.2218,183.996208 L1399.70731,183.996208 C1401.04344,203.18789 1406.2007,217.277986 1415.19427,226.271557 C1424.18784,235.265128 1436.08648,239.754321 1450.91043,239.754321 C1458.19335,239.754321 1464.4843,238.904057 1469.76809,237.203528 C1475.05187,235.502999 1479.66759,233.620271 1483.61525,231.555343 C1487.55784,229.490415 1491.0247,227.607687 1494.00062,225.907158 C1496.97655,224.206629 1499.86137,223.356365 1502.6551,223.356365 C1504.47709,223.356365 1506.05616,223.720764 1507.39735,224.449562 C1508.73348,225.183421 1509.88235,226.215885 1510.85914,227.546954 L1523.9775,243.94491 C1518.99738,249.770234 1513.40993,254.664315 1507.21515,258.60691 C1501.0153,262.554567 1494.55228,265.712692 1487.8109,268.081285 C1481.06952,270.449879 1474.20667,272.120041 1467.22235,273.091772 C1460.23804,274.058442 1453.46629,274.549368 1446.90711,274.549368 C1433.91021,274.549368 1421.82431,272.38828 1410.6494,268.081285 C1399.46944,263.76923 1389.75719,257.397308 1381.49748,248.950336 C1373.23271,240.508425 1366.73932,230.06738 1361.99707,217.61708 C1357.25988,205.16678 1354.89129,190.73759 1354.89129,174.344694 C1354.89129,161.590728 1356.95622,149.595927 1361.09113,138.36029 C1365.21593,127.124653 1371.13741,117.346612 1378.85559,109.026167 C1386.56364,100.705723 1395.98234,94.1161733 1407.09651,89.2575195 C1418.21068,84.3988657 1430.74196,81.9644777 1444.70553,81.9644777 Z M1445.62159,114.213792 C1432.49816,114.213792 1422.23426,117.918516 1414.82987,125.327963 C1407.41536,132.73741 1402.68323,148.305347 1400.61325,161.909577 L1485.15382,161.909577 C1485.15382,156.079193 1484.36429,145.521743 1482.78523,140.359423 C1481.2011,135.197104 1478.77684,130.672482 1475.49725,126.785559 C1472.22272,122.898636 1468.0878,119.831611 1463.11274,117.584483 C1458.13262,115.337356 1452.29718,114.213792 1445.62159,114.213792 Z" id="Shape"></path>
                <path d="M1609.04443,274.736629 C1592.88941,274.736629 1580.44417,270.151274 1571.69353,260.975504 C1562.94796,251.804795 1558.57517,239.14699 1558.57517,222.986905 L1558.57517,118.586581 L1539.62642,118.586581 C1537.19709,118.586581 1535.09673,117.79705 1533.34053,116.217987 C1531.57927,114.638925 1530.7037,112.275392 1530.7037,109.112206 L1530.7037,91.2566531 L1565.82266,86.3372661 L1570.23594,35.321401 C1570.7218,32.8920741 1571.84537,31.0093458 1573.60663,29.673216 C1575.36789,28.3370862 1577.58465,27.6690213 1580.25691,27.6690213 L1603.57339,27.6690213 L1603.57339,86.5194656 L1652.77232,86.5194656 L1652.77232,118.586581 L1603.57339,118.586581 L1603.57339,219.894574 C1603.57339,225.719897 1605.03098,230.279947 1607.94618,233.554477 C1610.86137,236.834068 1614.74829,238.478925 1619.60694,238.478925 C1622.40067,238.478925 1624.7389,238.144892 1626.62669,237.476827 C1628.50435,236.808763 1630.14415,236.10527 1631.54607,235.381533 C1632.93788,234.647674 1634.18291,233.954303 1635.28116,233.286239 C1636.37436,232.618174 1637.46756,232.284141 1638.55569,232.284141 C1639.89182,232.284141 1640.98502,232.618174 1641.83529,233.286239 C1642.68049,233.954303 1643.59655,234.956401 1644.56828,236.292531 L1658.05104,258.156473 C1651.49186,263.622458 1643.95589,267.752314 1635.45324,270.54604 C1626.9506,273.339766 1618.15441,274.736629 1609.04443,274.736629 Z" id="Path"></path>
            </g>
            <g id="Group" transform="translate(0.000000, 11.000000)">
                <path d="M244.91441,60.8686069 C258.381248,81.6724603 266.2,106.473146 266.2,133.1 C266.2,157.920556 259.406075,181.154306 247.576423,201.043052 L200.751565,129.285073 L244.91441,60.8686069 Z" id="Path" fill="#211915"></path>
                <path d="M133.1,0 C158.720831,0 182.65088,7.2390927 202.956343,19.7834718 L162.261299,86.3642726 L110.629801,1.88874515 C117.934369,0.646797138 125.441651,0 133.1,0 Z" id="Path" fill="#211915"></path>
                <path d="M54.5834884,25.6142118 L120.72504,128.17744 L50.6934582,237.628626 C19.8175299,213.253804 0,175.491218 0,133.1 C0,88.9542299 21.4919551,49.8281749 54.5834884,25.6142118 Z" id="Path" fill="#58B9D7"></path>
                <path d="M159.492215,172.482782 L204.248127,245.608237 C183.668914,258.649429 159.266222,266.2 133.1,266.2 C122.989641,266.2 113.142572,265.072722 103.677625,262.936999 L159.492215,172.482782 Z" id="Shape" fill="#211915"></path>
            </g>
        </g>
    </g>
</svg>