<?xml version="1.0" encoding="UTF-8"?>
<svg width="1300px" height="1300px" viewBox="0 0 1300 1300" version="1.1" xmlns="http://www.w3.org/2000/svg" xmlns:xlink="http://www.w3.org/1999/xlink">
    <title>Artboard</title>
    <g id="Artboard" stroke="none" stroke-width="1" fill="none" fill-rule="evenodd">
        <text id="X" font-family="Lato-Black, Lato" font-size="1829.5" font-weight="800" letter-spacing="-4.04136548" fill="#FFFFFF">
            <tspan x="-948.562635" y="2959">X</tspan>
        </text>
        <g id="Group">
            <path d="M1196.05084,297.254654 C1261.81676,398.851233 1300,519.96653 1300,650 C1300,771.212333 1266.82155,884.675425 1209.0509,981.803032 L980.379544,631.369629 L1196.05084,297.254654 Z" id="Path" fill="#211915"></path>
            <path d="M650,0 C775.12051,0 891.984014,35.3524437 991.14668,96.6134986 L792.41055,421.763916 L540.265743,9.22377422 C575.937939,3.15866371 612.600097,0 650,0 Z" id="Path" fill="#211915"></path>
            <path d="M266.560988,125.088187 L589.566312,625.960449 L247.563845,1160.47038 C96.7798231,1041.43481 0,857.019472 0,650 C0,434.412092 104.956956,243.338194 266.560988,125.088187 Z" id="Path" fill="#58B9D7"></path>
            <path d="M778.887601,842.327637 L997.455166,1199.43917 C896.95563,1263.12644 777.783956,1300 650,1300 C600.625596,1300 552.536979,1294.49489 506.314472,1284.06498 L778.887601,842.327637 Z" id="Shape" fill="#211915"></path>
        </g>
    </g>
</svg>