<?xml version="1.0" encoding="UTF-8"?>
<svg width="537px" height="89px" viewBox="0 0 537 89" version="1.1" xmlns="http://www.w3.org/2000/svg" xmlns:xlink="http://www.w3.org/1999/xlink">
    <title>Group 7</title>
    <g id="Page-1" stroke="none" stroke-width="1" fill="none" fill-rule="evenodd">
        <g id="Group-7" fill="#FFFFFF">
            <g id="Group" transform="translate(89.187209, 0.000000)" fill-rule="nonzero">
                <polygon id="Path" points="41.7358525 3.43797606 41.7358525 7.55386289 5.06933114 7.55386289 5.06933114 35.2513602 35.5837516 35.2513602 35.5837516 39.2704026 5.06933114 39.2704026 5.06933114 67.8394995 41.7358525 67.8394995 41.7358525 71.9567314 0 71.9567314 0 3.43932112 41.7358525 3.43932112"></polygon>
                <path d="M63.3420308,47.3084875 L46.3130155,23.7752992 L50.791745,23.7752992 C51.2511019,23.7752992 51.5874167,23.8721436 51.8006895,24.0658324 C52.0139624,24.2595212 52.2026268,24.4854915 52.3666828,24.7437432 L66.7379905,45.1779108 C66.8692353,44.6291259 67.1481306,44.0480595 67.5746762,43.4347116 L81.0108646,24.7921654 C81.1749206,24.5016322 81.3799907,24.2595212 81.6260747,24.0658324 C81.8721587,23.8721436 82.1592568,23.7752992 82.4873688,23.7752992 L86.8184478,23.7752992 L69.690999,47.0663765 L87.5074831,71.9553863 L83.0287537,71.9553863 C82.5693968,71.9553863 82.2084736,71.816845 81.9459839,71.5424525 C81.6834943,71.2694052 81.4702215,71.0030831 81.3061654,70.7434863 L66.4426897,49.4377191 C66.2786337,50.0833484 66.0325496,50.6321334 65.7044376,51.0840739 L51.4315635,70.8403307 C51.2018851,71.1308639 50.9640038,71.3891156 50.7179198,71.6150858 C50.4718358,71.8410561 50.1683321,71.9540412 49.8074089,71.9540412 L45.6239802,71.9540412 L63.3420308,47.3084875 Z" id="Path"></path>
                <path d="M93.2644825,89 L93.2644825,23.7752992 L95.8237564,23.7752992 C96.2503021,23.7752992 96.5934526,23.8640733 96.8573094,24.0416213 C97.119799,24.2191694 97.2674494,24.5339137 97.3002606,24.9858542 L97.7432119,32.4428727 C99.9087514,29.5375408 102.443417,27.2307611 105.347209,25.5184984 C108.251,23.8075807 111.507512,22.9521219 115.116745,22.9521219 C121.154007,22.9521219 125.846009,25.0019949 129.192752,29.101741 C132.539495,33.2014871 134.212866,39.3511063 134.212866,47.5505985 C134.212866,51.0692782 133.745306,54.3539173 132.810187,57.4045158 C131.875068,60.4564593 130.5052,63.1021944 128.700584,65.3457563 C126.895967,67.5893181 124.673008,69.3567283 122.031706,70.6466419 C119.390404,71.9392456 116.347165,72.5835298 112.901989,72.5835298 C109.555246,72.5835298 106.66786,71.9863227 104.23983,70.7919085 C101.811801,69.5974943 99.7118842,67.8220137 97.9400791,65.4654667 L97.9400791,88.9986549 L93.2644825,88.9986549 L93.2644825,89 Z M113.787891,26.6806311 C110.539582,26.6806311 107.593409,27.5118789 104.953474,29.1743743 C102.312172,30.8368698 99.9743738,33.1530649 97.9400791,36.1229597 L97.9400791,61.3993471 C99.8103178,64.1755531 101.885627,66.1299269 104.166005,67.2584331 C106.445017,68.3882844 109.045305,68.95321 111.966869,68.95321 C114.852888,68.95321 117.380718,68.4367066 119.546257,67.4050447 C121.711797,66.3706928 123.524616,64.9113015 124.984715,63.0214908 C126.443446,61.1343701 127.543989,58.8746675 128.282241,56.242383 C129.020493,53.6114436 129.389619,50.7155271 129.389619,47.5505985 C129.389619,40.3841132 128.052562,35.1141639 125.378449,31.7407508 C122.704336,28.3673377 118.840817,26.6806311 113.787891,26.6806311 Z" id="Shape"></path>
                <path d="M160.444057,23.0005441 C163.200198,23.0005441 165.751269,23.4686253 168.097271,24.4047878 C170.441905,25.3409503 172.477566,26.7048422 174.200155,28.4964635 C175.922743,30.2880849 177.268002,32.4912949 178.235933,35.1060936 C179.203863,37.7208923 179.687829,40.7230686 179.687829,44.1126224 C179.687829,44.8228147 179.579825,45.3070366 179.367919,45.5652884 C179.154647,45.8235401 178.819699,45.9526659 178.360342,45.9526659 L143.021307,45.9526659 L143.021307,46.8726877 C143.021307,50.4882118 143.447853,53.6679362 144.300944,56.4118607 C145.154036,59.1571303 146.36805,61.4571847 147.942988,63.313369 C149.517926,65.1695533 151.419609,66.5657266 153.652138,67.5005441 C155.8833,68.4367066 158.376951,68.9047878 161.133092,68.9047878 C163.593933,68.9047878 165.726661,68.6398108 167.531277,68.1058215 C169.334526,67.5731774 170.853412,66.9759703 172.083832,66.3142002 C173.314252,65.6537752 174.290386,65.0552231 175.012232,64.5225789 C175.734079,63.9899347 176.259058,63.7236126 176.58717,63.7236126 C177.013716,63.7236126 177.341828,63.8850199 177.571506,64.2078346 L178.851143,65.7559999 C178.063674,66.7244438 177.021918,67.6296699 175.725876,68.468988 C174.429833,69.3083061 172.98614,70.0265687 171.394797,70.6237758 C169.803453,71.220983 168.097271,71.6971346 166.276249,72.0522307 C164.455227,72.4086719 162.626002,72.5848749 160.788575,72.5848749 C157.441832,72.5848749 154.39039,72.0105338 151.634249,70.8658868 C148.878107,69.7198948 146.511599,68.049329 144.538826,65.8541893 C142.564685,63.6590497 141.038964,60.9716177 139.961663,57.7918934 C138.882994,54.612169 138.344344,50.9724338 138.344344,46.8726877 C138.344344,43.4185709 138.844714,40.2307762 139.845456,37.3093036 C140.846198,34.387831 142.289891,31.8698767 144.176535,29.7554407 C146.063179,27.6410047 148.376369,25.9865796 151.116105,24.7921654 C153.857208,23.5977512 156.964702,23.0005441 160.444057,23.0005441 Z M160.516515,26.4385201 C157.994154,26.4385201 155.732915,26.8258977 153.735533,27.6006529 C151.736784,28.3754081 150.008727,29.4891186 148.551363,30.9417845 C147.093998,32.3944505 145.914162,34.1376496 145.013221,36.1713819 C144.110913,38.2051143 143.513475,40.4809576 143.219542,42.9989119 L175.45655,42.9989119 C175.45655,40.4163946 175.095627,38.1001995 174.375148,36.0503264 C173.654668,34.0004534 172.638888,32.2653246 171.327807,30.8449402 C170.018093,29.4245557 168.444523,28.3350562 166.609829,27.5764418 C164.773769,26.8178273 162.743576,26.4385201 160.516515,26.4385201 Z" id="Shape"></path>
                <path d="M188.34862,71.9567314 L188.34862,23.7766443 L190.80946,23.7766443 C191.36725,23.7766443 191.769188,23.8896294 192.015272,24.1155997 C192.261356,24.3415699 192.400803,24.7289475 192.433615,25.2777324 L192.827349,35.446394 C194.402287,31.5403367 196.502204,28.4816679 199.1271,26.2703875 C201.751997,24.0591071 204.9839,22.9534669 208.822811,22.9534669 C210.299316,22.9534669 211.660981,23.1068039 212.907806,23.4134778 C214.154632,23.7201517 215.335836,24.1640219 216.451417,24.7450883 L215.811598,27.9409533 C215.811598,27.9409533 214.351499,27.3060845 213.990576,27.1769587 C213.629653,27.0478328 213.178499,26.9025662 212.637114,26.7411589 C212.095729,26.5797515 211.431302,26.4344849 210.643833,26.3053591 C209.856364,26.1762332 208.954056,26.1116703 207.936909,26.1116703 C204.229243,26.1116703 201.186004,28.5865826 198.807191,30.8462852 C196.428379,33.1059878 194.500721,36.3664158 193.024216,40.6275692 L193.024216,71.9567314 L188.34862,71.9567314 Z" id="Path"></path>
                <path d="M238.597613,72.7314865 C234.233722,72.7314865 230.870574,71.5128612 228.508167,69.0742655 C226.14576,66.6370149 224.964557,63.2730172 224.964557,58.9782372 L224.964557,31.2323177 L219.846009,31.2323177 C219.189785,31.2323177 218.622425,31.0224882 218.148029,30.6028292 C217.672267,30.1831701 217.434386,29.5550266 217.434386,28.7143634 L217.434386,23.968988 L226.922292,22.6615887 L228.114433,9.10337323 C228.245678,8.45774392 228.549181,7.95738121 229.024944,7.60228509 C229.500706,7.24718897 230.099511,7.06964091 230.821357,7.06964091 L237.121108,7.06964091 L237.121108,22.7100109 L250.409646,22.7100109 L250.409646,31.2323177 L237.121108,31.2323177 L237.121108,58.1564049 C237.121108,59.7045702 237.514843,60.9164702 238.302312,61.7867247 C239.089781,62.6583243 240.139739,63.0954691 241.452187,63.0954691 C242.206845,63.0954691 242.838461,63.0066951 243.347035,62.829147 C243.855608,62.651599 244.298559,62.4646355 244.675888,62.2722917 C245.05185,62.0772579 245.389532,61.8929845 245.684833,61.7154365 C245.980134,61.5378884 246.275435,61.4491144 246.570735,61.4491144 C246.931659,61.4491144 247.226959,61.5378884 247.456638,61.7154365 C247.686316,61.8929845 247.9324,62.1593066 248.19489,62.5144027 L251.838301,68.3250665 C250.066496,69.7777324 248.030834,70.8753023 245.735417,71.617776 C243.437265,72.3589046 241.058453,72.7314865 238.597613,72.7314865 Z" id="Path"></path>
                <path d="M270.933055,7.79597388 C270.933055,8.83032584 270.719782,9.7987698 270.293236,10.7013058 C269.865324,11.6051868 269.29933,12.3960827 268.595257,13.0739935 C267.888449,13.7519042 267.061333,14.2926188 266.111175,14.6961371 C265.158283,15.0996554 264.142503,15.3014146 263.059733,15.3014146 C262.008407,15.3014146 261.017235,15.1010005 260.082116,14.6961371 C259.14563,14.2926188 258.334919,13.7519042 257.644517,13.0739935 C256.955482,12.3960827 256.405894,11.6051868 255.995754,10.7013058 C255.584247,9.7987698 255.380544,8.82898078 255.380544,7.79597388 C255.380544,6.73068553 255.584247,5.7299601 255.995754,4.79379761 C256.405894,3.85763511 256.955482,3.05059848 257.644517,2.3726877 C258.333552,1.69477693 259.14563,1.15406239 260.082116,0.75054407 C261.017235,0.347025753 262.008407,0.145266594 263.059733,0.145266594 C264.142503,0.145266594 265.158283,0.347025753 266.111175,0.75054407 C267.061333,1.15406239 267.889816,1.69477693 268.595257,2.3726877 C269.300697,3.05059848 269.866691,3.85763511 270.293236,4.79379761 C270.719782,5.7299601 270.933055,6.73068553 270.933055,7.79597388 Z M269.112033,22.2742111 L269.112033,71.9567314 L256.955482,71.9567314 L256.955482,22.2742111 L269.112033,22.2742111 Z" id="Shape"></path>
                <path d="M314.391496,32.7818281 C314.029205,33.2337686 313.677852,33.5888647 313.333334,33.8471164 C312.988817,34.1053682 312.488446,34.234494 311.832222,34.234494 C311.208809,34.234494 310.601802,34.0488756 310.0112,33.6776387 C309.420598,33.3077469 308.715157,32.8867428 307.894877,32.4186616 C307.07323,31.9505803 306.098464,31.5309213 304.966477,31.1596844 C303.834491,30.7897926 302.431812,30.6028292 300.75844,30.6028292 C298.624345,30.6028292 296.754106,30.9834814 295.147724,31.7407508 C293.539975,32.4993653 292.202918,33.5888647 291.136554,35.0092492 C290.07019,36.4296337 289.274518,38.1486217 288.749539,40.1662133 C288.223193,42.1838049 287.96207,44.4677185 287.96207,47.0179543 C287.96207,49.6650345 288.249168,52.0215814 288.823364,54.0875952 C289.39756,56.153609 290.226043,57.8900828 291.308813,59.2943266 C292.391583,60.6985703 293.702664,61.7638587 295.246158,62.4901916 C296.788284,63.2165246 298.525911,63.5796911 300.461772,63.5796911 C302.397633,63.5796911 303.965735,63.3456505 305.161977,62.8789143 C306.358219,62.4121781 307.368531,61.8943296 308.188811,61.3294039 C309.009091,60.7644783 309.722735,60.2479749 310.329742,59.7798936 C310.935382,59.3118124 311.616215,59.0791168 312.372239,59.0791168 C313.356576,59.0791168 314.094828,59.4503536 314.585629,60.1928273 L318.081389,64.5508252 C316.73613,66.0989904 315.276031,67.3996645 313.701093,68.4474671 C312.126155,69.4966147 310.492431,70.3359328 308.804021,70.9654214 C307.114244,71.5949099 305.36568,72.0387801 303.562431,72.2970318 C301.757815,72.5539385 299.969604,72.6844094 298.197799,72.6844094 C295.080735,72.6844094 292.142765,72.1100683 289.38799,70.9654214 C286.633216,69.8207744 284.228429,68.1488635 282.179095,65.9537239 C280.127028,63.7585842 278.50424,61.0711522 277.306631,57.8914279 C276.109022,54.7117035 275.510218,51.086764 275.510218,47.0192994 C275.510218,43.3714938 276.044767,39.9900103 277.111131,36.8748489 C278.176128,33.7596875 279.744231,31.0641851 281.811336,28.7883418 C283.878442,26.5124985 286.437716,24.7289475 289.489158,23.4376889 C292.539233,22.1464303 296.051399,21.500801 300.021555,21.500801 C303.794844,21.500801 307.100573,22.0993532 309.938742,23.2924223 C312.775544,24.4868365 315.326615,26.1977542 317.591955,28.4251753 L314.391496,32.7818281 Z" id="Path"></path>
                <path d="M334.224502,0 L334.224502,41.2072905 L336.488475,41.2072905 C337.308755,41.2072905 337.947206,41.0943054 338.406563,40.8683351 C338.86592,40.6423649 339.358088,40.2227058 339.883068,39.609358 L352.43472,24.3563656 C352.991144,23.7120814 353.583113,23.2036483 354.206526,22.8310664 C354.828571,22.4598295 355.650219,22.2742111 356.667366,22.2742111 L367.790364,22.2742111 L352.090203,40.7230686 C351.532412,41.4009793 350.958216,42.0237426 350.366247,42.5873232 C349.775646,43.1522488 349.137194,43.6445412 348.448159,44.0642002 C349.137194,44.5484222 349.742835,45.1133478 350.269181,45.7589771 C350.79416,46.4046065 351.31914,47.098658 351.842752,47.8411317 L368.676267,71.9567314 L357.700919,71.9567314 C356.749394,71.9567314 355.945519,71.795324 355.289295,71.4725094 C354.633071,71.1510398 354.042469,70.6022549 353.51749,69.8261546 L340.671904,50.9899196 C340.181103,50.2474459 339.687567,49.7632239 339.195399,49.5372537 C338.704598,49.3126285 337.966346,49.1982983 336.980643,49.1982983 L334.224502,49.1982983 L334.224502,71.9567314 L322.06795,71.9567314 L322.06795,0 L334.224502,0 Z" id="Path"></path>
                <path d="M390.182644,21.4994559 C393.365331,21.4994559 396.293731,22.0011637 398.969212,23.0005441 C401.641958,24.0012695 403.948312,25.4633509 405.884173,27.382753 C407.820034,29.3035002 409.32935,31.6613922 410.412119,34.4523939 C411.494889,37.2447407 412.036274,40.4325354 412.036274,44.015778 C412.036274,44.919659 411.99526,45.6702031 411.913232,46.2674102 C411.829837,46.8646173 411.683553,47.3326986 411.470281,47.671654 C411.257008,48.0106094 410.96991,48.2527203 410.608987,48.3979869 C410.246696,48.5432535 409.787339,48.6158868 409.230916,48.6158868 L378.02746,48.6158868 C378.388383,53.7163584 379.781493,57.4610083 382.210889,59.8511818 C384.640285,62.2413553 387.854416,63.4344245 391.85875,63.4344245 C393.826055,63.4344245 395.525402,63.2084542 396.95269,62.7565137 C398.379977,62.3045732 399.626803,61.8042105 400.693167,61.2554256 C401.758164,60.7066407 402.694651,60.206278 403.498525,59.7543374 C404.3024,59.3023969 405.081666,59.0764267 405.836323,59.0764267 C406.328491,59.0764267 406.755037,59.1732711 407.117327,59.3669599 C407.478251,59.5619937 407.78859,59.8363862 408.052447,60.1901372 L411.596057,64.5481351 C410.250798,66.0963003 408.741482,67.3969744 407.068111,68.4447769 C405.393372,69.4939246 403.647543,70.3332427 401.826521,70.9627312 C400.005499,71.5922198 398.151666,72.03609 396.265022,72.2943417 C394.378377,72.5512483 392.549153,72.6817193 390.777348,72.6817193 C387.266549,72.6817193 384.001834,72.1073782 380.983203,70.9627312 C377.963205,69.8167392 375.339676,68.1233073 373.108514,65.8784004 C370.875985,63.6348386 369.121952,60.8599776 367.840948,57.5511274 C366.561311,54.2422772 365.921493,50.4075082 365.921493,46.0508554 C365.921493,42.6613015 366.479283,39.4735068 367.596231,36.4874713 C368.710445,33.5014357 370.309991,30.9027778 372.39487,28.6914974 C374.477014,26.480217 377.02125,24.7289475 380.023475,23.4376889 C383.0257,22.1464303 386.410723,21.4994559 390.182644,21.4994559 Z M390.430096,30.070185 C386.885118,30.070185 384.112572,31.0547697 382.112455,33.0239391 C380.109605,34.9931085 378.831335,39.1305163 378.272177,42.7460404 L401.108776,42.7460404 C401.108776,41.19653 400.895503,38.3907327 400.468957,37.0187704 C400.041044,35.6468081 399.386187,34.4443235 398.500285,33.4113166 C397.615749,32.3783098 396.498801,31.5632028 395.154909,30.9659956 C393.80965,30.3687885 392.233345,30.070185 390.430096,30.070185 Z" id="Shape"></path>
                <path d="M434.574837,72.7314865 C430.210947,72.7314865 426.849166,71.5128612 424.485392,69.0742655 C422.122985,66.6370149 420.941782,63.2730172 420.941782,58.9782372 L420.941782,31.2323177 L415.823234,31.2323177 C415.16701,31.2323177 414.599649,31.0224882 414.125254,30.6028292 C413.649492,30.1831701 413.412977,29.5550266 413.412977,28.7143634 L413.412977,23.968988 L422.899517,22.6615887 L424.091657,9.10337323 C424.222902,8.45774392 424.526406,7.95738121 425.002168,7.60228509 C425.477931,7.24718897 426.076735,7.06964091 426.798582,7.06964091 L433.096966,7.06964091 L433.096966,22.7100109 L446.386871,22.7100109 L446.386871,31.2323177 L433.096966,31.2323177 L433.096966,58.1564049 C433.096966,59.7045702 433.4907,60.9164702 434.278169,61.7867247 C435.065638,62.6583243 436.115597,63.0954691 437.428045,63.0954691 C438.182703,63.0954691 438.814318,63.0066951 439.324259,62.829147 C439.831466,62.651599 440.274417,62.4646355 440.653113,62.2722917 C441.029075,62.0772579 441.36539,61.8929845 441.662058,61.7154365 C441.957358,61.5378884 442.252659,61.4491144 442.546593,61.4491144 C442.907516,61.4491144 443.202817,61.5378884 443.432496,61.7154365 C443.660807,61.8929845 443.908258,62.1593066 444.170748,62.5144027 L447.812791,68.3250665 C446.040986,69.7777324 444.005324,70.8753023 441.70854,71.617776 C439.411756,72.3602497 437.035678,72.7314865 434.574837,72.7314865 Z" id="Path"></path>
            </g>
            <g id="Group" transform="translate(0.000000, 2.639604)">
                <path d="M66.1577232,16.1767263 C69.7954649,21.7056559 71.9075122,28.2968025 71.9075122,35.3732799 C71.9075122,41.9697073 70.0722971,48.1444176 66.8768019,53.4301438 L54.2281954,34.3594071 L66.1577232,16.1767263 Z" id="Path"></path>
                <path d="M35.9537561,0 C42.8746058,0 49.3387318,1.92389521 54.8237631,5.2577482 L43.8309779,22.952574 L29.8839734,0.501961766 C31.8571264,0.17189584 33.8850376,0 35.9537561,0 Z" id="Path"></path>
                <path d="M14.7444134,6.80735299 L32.610959,34.0650372 L13.6936156,63.1532977 C5.35322793,56.6753307 0,46.6393688 0,35.3732799 C0,23.6408931 5.80553352,13.2425693 14.7444134,6.80735299 Z" id="Path" opacity="0.379480271"></path>
                <path d="M43.0829766,45.8398328 L55.1727073,65.2739963 C49.6137291,68.7398848 43.0219302,70.7465599 35.9537561,70.7465599 C33.2226864,70.7465599 30.5627381,70.4469693 28.0060108,69.8793695 L43.0829766,45.8398328 Z" id="Shape"></path>
            </g>
        </g>
    </g>
</svg>